<mxfile host="app.diagrams.net" modified="2024-07-21T09:07:32.670Z" agent="Mozilla/5.0 (Windows NT 10.0; Win64; x64) AppleWebKit/537.36 (KHTML, like Gecko) Chrome/126.0.0.0 Safari/537.36" etag="iFLrToXycGuEBBLlC3sR" version="24.7.2" type="device">
  <diagram name="Страница — 1" id="4OmUkLeNqCe0ShxuFkjf">
    <mxGraphModel dx="7000" dy="3533" grid="1" gridSize="10" guides="1" tooltips="1" connect="1" arrows="1" fold="1" page="1" pageScale="1" pageWidth="4681" pageHeight="3300" math="0" shadow="0">
      <root>
        <mxCell id="0" />
        <mxCell id="1" parent="0" />
        <mxCell id="_XFG_jNddfj7azUs-ilm-1" value="&lt;font style=&quot;font-size: 30px;&quot;&gt;engine-schema.json&lt;/font&gt;" style="shape=parallelogram;perimeter=parallelogramPerimeter;whiteSpace=wrap;html=1;fixedSize=1;" parent="1" vertex="1">
          <mxGeometry x="2160" y="90" width="360" height="94" as="geometry" />
        </mxCell>
        <mxCell id="_XFG_jNddfj7azUs-ilm-2" value="&lt;font style=&quot;font-size: 30px;&quot;&gt;Generate pydantic model&lt;/font&gt;" style="rounded=0;whiteSpace=wrap;html=1;" parent="1" vertex="1">
          <mxGeometry x="2160" y="310" width="360" height="89" as="geometry" />
        </mxCell>
        <mxCell id="_XFG_jNddfj7azUs-ilm-3" value="" style="endArrow=open;html=1;rounded=0;exitX=0.5;exitY=1;exitDx=0;exitDy=0;entryX=0.5;entryY=0;entryDx=0;entryDy=0;endFill=0;endSize=20;" parent="1" source="_XFG_jNddfj7azUs-ilm-1" target="_XFG_jNddfj7azUs-ilm-2" edge="1">
          <mxGeometry width="50" height="50" relative="1" as="geometry">
            <mxPoint x="2036" y="840" as="sourcePoint" />
            <mxPoint x="2086" y="790" as="targetPoint" />
          </mxGeometry>
        </mxCell>
        <mxCell id="mVJcqzHK1oMDs0tAUVm2-13" style="edgeStyle=orthogonalEdgeStyle;rounded=0;orthogonalLoop=1;jettySize=auto;html=1;endArrow=open;endFill=0;endSize=20;" edge="1" parent="1" source="_XFG_jNddfj7azUs-ilm-5">
          <mxGeometry relative="1" as="geometry">
            <mxPoint x="2339.999999999999" y="790" as="targetPoint" />
          </mxGeometry>
        </mxCell>
        <mxCell id="_XFG_jNddfj7azUs-ilm-5" value="&lt;font style=&quot;font-size: 30px;&quot;&gt;Generate REST controller&lt;/font&gt;" style="rounded=0;whiteSpace=wrap;html=1;" parent="1" vertex="1">
          <mxGeometry x="2130" y="530" width="420" height="89" as="geometry" />
        </mxCell>
        <mxCell id="_XFG_jNddfj7azUs-ilm-6" value="" style="endArrow=open;html=1;rounded=0;exitX=0.5;exitY=1;exitDx=0;exitDy=0;entryX=0.5;entryY=0;entryDx=0;entryDy=0;endFill=0;endSize=20;" parent="1" source="_XFG_jNddfj7azUs-ilm-2" target="_XFG_jNddfj7azUs-ilm-5" edge="1">
          <mxGeometry width="50" height="50" relative="1" as="geometry">
            <mxPoint x="2236" y="590" as="sourcePoint" />
            <mxPoint x="2286" y="540" as="targetPoint" />
          </mxGeometry>
        </mxCell>
        <mxCell id="mVJcqzHK1oMDs0tAUVm2-156" style="edgeStyle=orthogonalEdgeStyle;rounded=0;orthogonalLoop=1;jettySize=auto;html=1;entryX=0.5;entryY=0;entryDx=0;entryDy=0;endArrow=open;endFill=0;endSize=20;" edge="1" parent="1" source="_XFG_jNddfj7azUs-ilm-7" target="mVJcqzHK1oMDs0tAUVm2-154">
          <mxGeometry relative="1" as="geometry">
            <Array as="points">
              <mxPoint x="510" y="990" />
              <mxPoint x="510" y="990" />
            </Array>
          </mxGeometry>
        </mxCell>
        <mxCell id="_XFG_jNddfj7azUs-ilm-7" value="&lt;font style=&quot;font-size: 30px;&quot;&gt;GET: /{kind}/{uuid}&lt;/font&gt;" style="rounded=0;whiteSpace=wrap;html=1;" parent="1" vertex="1">
          <mxGeometry x="350" y="860" width="320" height="89" as="geometry" />
        </mxCell>
        <mxCell id="mVJcqzHK1oMDs0tAUVm2-158" style="edgeStyle=orthogonalEdgeStyle;rounded=0;orthogonalLoop=1;jettySize=auto;html=1;entryX=0.5;entryY=0;entryDx=0;entryDy=0;endArrow=open;endFill=0;endSize=20;" edge="1" parent="1" source="_XFG_jNddfj7azUs-ilm-8" target="mVJcqzHK1oMDs0tAUVm2-153">
          <mxGeometry relative="1" as="geometry" />
        </mxCell>
        <mxCell id="_XFG_jNddfj7azUs-ilm-8" value="&lt;font style=&quot;font-size: 30px;&quot;&gt;GET: /{kind}/{uuid}/state&lt;/font&gt;" style="rounded=0;whiteSpace=wrap;html=1;" parent="1" vertex="1">
          <mxGeometry x="1160" y="860" width="410" height="89" as="geometry" />
        </mxCell>
        <mxCell id="mVJcqzHK1oMDs0tAUVm2-97" style="edgeStyle=orthogonalEdgeStyle;rounded=0;orthogonalLoop=1;jettySize=auto;html=1;entryX=0.5;entryY=0;entryDx=0;entryDy=0;endArrow=open;endFill=0;endSize=20;" edge="1" parent="1" source="_XFG_jNddfj7azUs-ilm-9" target="mVJcqzHK1oMDs0tAUVm2-96">
          <mxGeometry relative="1" as="geometry" />
        </mxCell>
        <mxCell id="_XFG_jNddfj7azUs-ilm-9" value="&lt;font style=&quot;font-size: 30px;&quot;&gt;POST: /{kind}/&lt;/font&gt;" style="rounded=0;whiteSpace=wrap;html=1;" parent="1" vertex="1">
          <mxGeometry x="1880" y="860" width="280" height="89" as="geometry" />
        </mxCell>
        <mxCell id="mVJcqzHK1oMDs0tAUVm2-159" style="edgeStyle=orthogonalEdgeStyle;rounded=0;orthogonalLoop=1;jettySize=auto;html=1;entryX=0.5;entryY=0;entryDx=0;entryDy=0;endArrow=open;endFill=0;endSize=20;" edge="1" parent="1" source="_XFG_jNddfj7azUs-ilm-10" target="mVJcqzHK1oMDs0tAUVm2-86">
          <mxGeometry relative="1" as="geometry" />
        </mxCell>
        <mxCell id="_XFG_jNddfj7azUs-ilm-10" value="&lt;font style=&quot;font-size: 30px;&quot;&gt;PUT: /{kind}/{uuid}/{settings}/&lt;/font&gt;" style="rounded=0;whiteSpace=wrap;html=1;" parent="1" vertex="1">
          <mxGeometry x="2320" y="860" width="460" height="89" as="geometry" />
        </mxCell>
        <mxCell id="mVJcqzHK1oMDs0tAUVm2-170" style="edgeStyle=orthogonalEdgeStyle;rounded=0;orthogonalLoop=1;jettySize=auto;html=1;entryX=0.5;entryY=0;entryDx=0;entryDy=0;endArrow=open;endFill=0;endSize=20;" edge="1" parent="1" source="_XFG_jNddfj7azUs-ilm-11" target="mVJcqzHK1oMDs0tAUVm2-120">
          <mxGeometry relative="1" as="geometry" />
        </mxCell>
        <mxCell id="_XFG_jNddfj7azUs-ilm-11" value="&lt;font style=&quot;font-size: 30px;&quot;&gt;PUT: /{kind}/{uuid}/{configuration}/&lt;/font&gt;" style="rounded=0;whiteSpace=wrap;html=1;" parent="1" vertex="1">
          <mxGeometry x="2920" y="860" width="500" height="89" as="geometry" />
        </mxCell>
        <mxCell id="mVJcqzHK1oMDs0tAUVm2-186" style="edgeStyle=orthogonalEdgeStyle;rounded=0;orthogonalLoop=1;jettySize=auto;html=1;endArrow=open;endFill=0;endSize=20;" edge="1" parent="1" source="_XFG_jNddfj7azUs-ilm-12" target="mVJcqzHK1oMDs0tAUVm2-185">
          <mxGeometry relative="1" as="geometry" />
        </mxCell>
        <mxCell id="_XFG_jNddfj7azUs-ilm-12" value="&lt;font style=&quot;font-size: 19px;&quot;&gt;PUT: /{kind}/{uuid}/state&lt;/font&gt;" style="rounded=0;whiteSpace=wrap;html=1;" parent="1" vertex="1">
          <mxGeometry x="3635" y="860" width="240" height="89" as="geometry" />
        </mxCell>
        <mxCell id="mVJcqzHK1oMDs0tAUVm2-210" style="edgeStyle=orthogonalEdgeStyle;rounded=0;orthogonalLoop=1;jettySize=auto;html=1;entryX=0.5;entryY=0;entryDx=0;entryDy=0;endArrow=open;endFill=0;endSize=20;" edge="1" parent="1" source="_XFG_jNddfj7azUs-ilm-13" target="mVJcqzHK1oMDs0tAUVm2-209">
          <mxGeometry relative="1" as="geometry" />
        </mxCell>
        <mxCell id="_XFG_jNddfj7azUs-ilm-13" value="&lt;font style=&quot;font-size: 19px;&quot;&gt;DELETE: /{kind}/{uuid}/&lt;/font&gt;" style="rounded=0;whiteSpace=wrap;html=1;" parent="1" vertex="1">
          <mxGeometry x="4180" y="870" width="250" height="89" as="geometry" />
        </mxCell>
        <mxCell id="_XFG_jNddfj7azUs-ilm-16" value="" style="endArrow=none;html=1;rounded=0;" parent="1" edge="1">
          <mxGeometry width="50" height="50" relative="1" as="geometry">
            <mxPoint x="510" y="790" as="sourcePoint" />
            <mxPoint x="4310" y="790" as="targetPoint" />
          </mxGeometry>
        </mxCell>
        <mxCell id="_XFG_jNddfj7azUs-ilm-17" value="" style="endArrow=open;html=1;rounded=0;entryX=0.5;entryY=0;entryDx=0;entryDy=0;endFill=0;endSize=20;" parent="1" target="_XFG_jNddfj7azUs-ilm-7" edge="1">
          <mxGeometry width="50" height="50" relative="1" as="geometry">
            <mxPoint x="510" y="790" as="sourcePoint" />
            <mxPoint x="1945" y="450" as="targetPoint" />
          </mxGeometry>
        </mxCell>
        <mxCell id="_XFG_jNddfj7azUs-ilm-18" value="" style="endArrow=open;html=1;rounded=0;endFill=0;endSize=20;" parent="1" edge="1">
          <mxGeometry width="50" height="50" relative="1" as="geometry">
            <mxPoint x="4310" y="790" as="sourcePoint" />
            <mxPoint x="4310.29" y="870" as="targetPoint" />
            <Array as="points" />
          </mxGeometry>
        </mxCell>
        <mxCell id="_XFG_jNddfj7azUs-ilm-19" value="" style="endArrow=open;html=1;rounded=0;entryX=0.5;entryY=0;entryDx=0;entryDy=0;endFill=0;endSize=20;" parent="1" target="_XFG_jNddfj7azUs-ilm-8" edge="1">
          <mxGeometry width="50" height="50" relative="1" as="geometry">
            <mxPoint x="1365" y="790" as="sourcePoint" />
            <mxPoint x="1335" y="820" as="targetPoint" />
          </mxGeometry>
        </mxCell>
        <mxCell id="_XFG_jNddfj7azUs-ilm-20" value="" style="endArrow=open;html=1;rounded=0;entryX=0.5;entryY=0;entryDx=0;entryDy=0;endFill=0;endSize=20;" parent="1" target="_XFG_jNddfj7azUs-ilm-9" edge="1">
          <mxGeometry width="50" height="50" relative="1" as="geometry">
            <mxPoint x="2020" y="790" as="sourcePoint" />
            <mxPoint x="1715" y="920" as="targetPoint" />
          </mxGeometry>
        </mxCell>
        <mxCell id="_XFG_jNddfj7azUs-ilm-21" value="" style="endArrow=open;html=1;rounded=0;entryX=0.5;entryY=0;entryDx=0;entryDy=0;endFill=0;endSize=20;" parent="1" edge="1">
          <mxGeometry width="50" height="50" relative="1" as="geometry">
            <mxPoint x="2549.44" y="790" as="sourcePoint" />
            <mxPoint x="2549.44" y="860" as="targetPoint" />
          </mxGeometry>
        </mxCell>
        <mxCell id="_XFG_jNddfj7azUs-ilm-24" value="" style="endArrow=open;html=1;rounded=0;entryX=0.5;entryY=0;entryDx=0;entryDy=0;endFill=0;endSize=20;" parent="1" target="_XFG_jNddfj7azUs-ilm-12" edge="1">
          <mxGeometry width="50" height="50" relative="1" as="geometry">
            <mxPoint x="3755" y="790" as="sourcePoint" />
            <mxPoint x="3105" y="880" as="targetPoint" />
          </mxGeometry>
        </mxCell>
        <mxCell id="_XFG_jNddfj7azUs-ilm-31" style="edgeStyle=orthogonalEdgeStyle;rounded=0;orthogonalLoop=1;jettySize=auto;html=1;exitX=1;exitY=0.5;exitDx=0;exitDy=0;entryX=0.5;entryY=0;entryDx=0;entryDy=0;endArrow=open;endFill=0;endSize=20;" parent="1" source="_XFG_jNddfj7azUs-ilm-26" target="_XFG_jNddfj7azUs-ilm-30" edge="1">
          <mxGeometry relative="1" as="geometry" />
        </mxCell>
        <mxCell id="mVJcqzHK1oMDs0tAUVm2-4" value="&lt;font style=&quot;font-size: 30px;&quot;&gt;yes&lt;/font&gt;" style="edgeLabel;html=1;align=center;verticalAlign=middle;resizable=0;points=[];" vertex="1" connectable="0" parent="_XFG_jNddfj7azUs-ilm-31">
          <mxGeometry x="-0.2349" y="-4" relative="1" as="geometry">
            <mxPoint y="-4" as="offset" />
          </mxGeometry>
        </mxCell>
        <mxCell id="_XFG_jNddfj7azUs-ilm-34" style="edgeStyle=orthogonalEdgeStyle;rounded=0;orthogonalLoop=1;jettySize=auto;html=1;exitX=0;exitY=0.5;exitDx=0;exitDy=0;entryX=0.5;entryY=0;entryDx=0;entryDy=0;endArrow=open;endFill=0;endSize=20;" parent="1" source="_XFG_jNddfj7azUs-ilm-26" target="_XFG_jNddfj7azUs-ilm-33" edge="1">
          <mxGeometry relative="1" as="geometry">
            <mxPoint x="230" y="1390" as="targetPoint" />
          </mxGeometry>
        </mxCell>
        <mxCell id="mVJcqzHK1oMDs0tAUVm2-6" value="&lt;font style=&quot;font-size: 30px;&quot;&gt;no&lt;/font&gt;" style="edgeLabel;html=1;align=center;verticalAlign=middle;resizable=0;points=[];" vertex="1" connectable="0" parent="_XFG_jNddfj7azUs-ilm-34">
          <mxGeometry x="-0.4" relative="1" as="geometry">
            <mxPoint x="24" as="offset" />
          </mxGeometry>
        </mxCell>
        <mxCell id="_XFG_jNddfj7azUs-ilm-26" value="&lt;font style=&quot;font-size: 25px;&quot;&gt;Document&lt;/font&gt;&lt;div style=&quot;font-size: 25px;&quot;&gt;&lt;font style=&quot;font-size: 25px;&quot;&gt;exist?&lt;/font&gt;&lt;/div&gt;" style="rhombus;whiteSpace=wrap;html=1;" parent="1" vertex="1">
          <mxGeometry x="415" y="1250" width="190" height="180" as="geometry" />
        </mxCell>
        <mxCell id="_XFG_jNddfj7azUs-ilm-30" value="&lt;font style=&quot;font-size: 20px;&quot;&gt;Return document&lt;/font&gt;&lt;div style=&quot;font-size: 20px;&quot;&gt;&lt;font style=&quot;font-size: 20px;&quot;&gt;Status code: 200&lt;/font&gt;&lt;/div&gt;" style="shape=parallelogram;perimeter=parallelogramPerimeter;whiteSpace=wrap;html=1;fixedSize=1;fillColor=#cdeb8b;strokeColor=#36393d;" parent="1" vertex="1">
          <mxGeometry x="740" y="1480" width="220" height="94" as="geometry" />
        </mxCell>
        <mxCell id="mVJcqzHK1oMDs0tAUVm2-3" style="edgeStyle=orthogonalEdgeStyle;rounded=0;orthogonalLoop=1;jettySize=auto;html=1;entryX=0.5;entryY=0;entryDx=0;entryDy=0;endArrow=open;endFill=0;endSize=20;" edge="1" parent="1" source="_XFG_jNddfj7azUs-ilm-33" target="mVJcqzHK1oMDs0tAUVm2-2">
          <mxGeometry relative="1" as="geometry" />
        </mxCell>
        <mxCell id="mVJcqzHK1oMDs0tAUVm2-12" value="&lt;font style=&quot;font-size: 30px;&quot;&gt;yes&lt;/font&gt;" style="edgeLabel;html=1;align=center;verticalAlign=middle;resizable=0;points=[];" vertex="1" connectable="0" parent="mVJcqzHK1oMDs0tAUVm2-3">
          <mxGeometry x="-0.5334" relative="1" as="geometry">
            <mxPoint x="1" as="offset" />
          </mxGeometry>
        </mxCell>
        <mxCell id="mVJcqzHK1oMDs0tAUVm2-9" style="edgeStyle=orthogonalEdgeStyle;rounded=0;orthogonalLoop=1;jettySize=auto;html=1;entryX=0.5;entryY=0;entryDx=0;entryDy=0;endArrow=open;endFill=0;endSize=20;" edge="1" parent="1" source="_XFG_jNddfj7azUs-ilm-33" target="mVJcqzHK1oMDs0tAUVm2-1">
          <mxGeometry relative="1" as="geometry" />
        </mxCell>
        <mxCell id="mVJcqzHK1oMDs0tAUVm2-10" value="&lt;font style=&quot;font-size: 30px;&quot;&gt;no&lt;/font&gt;" style="edgeLabel;html=1;align=center;verticalAlign=middle;resizable=0;points=[];" vertex="1" connectable="0" parent="mVJcqzHK1oMDs0tAUVm2-9">
          <mxGeometry x="-0.5714" y="-1" relative="1" as="geometry">
            <mxPoint x="1" as="offset" />
          </mxGeometry>
        </mxCell>
        <mxCell id="_XFG_jNddfj7azUs-ilm-33" value="&lt;font style=&quot;font-size: 25px;&quot;&gt;Server error?&lt;/font&gt;" style="rhombus;whiteSpace=wrap;html=1;" parent="1" vertex="1">
          <mxGeometry x="210" y="1508" width="190" height="182" as="geometry" />
        </mxCell>
        <mxCell id="mVJcqzHK1oMDs0tAUVm2-1" value="&lt;font style=&quot;font-size: 20px;&quot;&gt;NOT FOUND&lt;br&gt;&lt;/font&gt;&lt;div style=&quot;font-size: 20px;&quot;&gt;&lt;font style=&quot;font-size: 20px;&quot;&gt;Status code: 404&lt;/font&gt;&lt;/div&gt;" style="shape=parallelogram;perimeter=parallelogramPerimeter;whiteSpace=wrap;html=1;fixedSize=1;fillColor=#ffe6cc;strokeColor=#d79b00;" vertex="1" parent="1">
          <mxGeometry x="20" y="1736" width="188" height="94" as="geometry" />
        </mxCell>
        <mxCell id="mVJcqzHK1oMDs0tAUVm2-2" value="&lt;font style=&quot;font-size: 20px;&quot;&gt;INTERNAL SERVER&amp;nbsp;&lt;/font&gt;&lt;div style=&quot;font-size: 20px;&quot;&gt;&lt;span style=&quot;background-color: initial;&quot;&gt;&lt;font style=&quot;font-size: 20px;&quot;&gt;ERROR&lt;/font&gt;&lt;/span&gt;&lt;div style=&quot;&quot;&gt;&lt;div style=&quot;&quot;&gt;&lt;font style=&quot;font-size: 20px;&quot;&gt;Status code: 500&lt;/font&gt;&lt;/div&gt;&lt;/div&gt;&lt;/div&gt;" style="shape=parallelogram;perimeter=parallelogramPerimeter;whiteSpace=wrap;html=1;fixedSize=1;fillColor=#f8cecc;strokeColor=#b85450;" vertex="1" parent="1">
          <mxGeometry x="460" y="1770" width="270" height="94" as="geometry" />
        </mxCell>
        <mxCell id="mVJcqzHK1oMDs0tAUVm2-19" style="edgeStyle=orthogonalEdgeStyle;rounded=0;orthogonalLoop=1;jettySize=auto;html=1;entryX=0.5;entryY=0;entryDx=0;entryDy=0;endArrow=open;endFill=0;endSize=20;" edge="1" parent="1" source="mVJcqzHK1oMDs0tAUVm2-15" target="mVJcqzHK1oMDs0tAUVm2-18">
          <mxGeometry relative="1" as="geometry" />
        </mxCell>
        <mxCell id="mVJcqzHK1oMDs0tAUVm2-20" value="&lt;font style=&quot;font-size: 30px;&quot;&gt;yes&lt;/font&gt;" style="edgeLabel;html=1;align=center;verticalAlign=middle;resizable=0;points=[];" vertex="1" connectable="0" parent="mVJcqzHK1oMDs0tAUVm2-19">
          <mxGeometry x="-0.5695" y="-1" relative="1" as="geometry">
            <mxPoint y="-1" as="offset" />
          </mxGeometry>
        </mxCell>
        <mxCell id="mVJcqzHK1oMDs0tAUVm2-22" style="edgeStyle=orthogonalEdgeStyle;rounded=0;orthogonalLoop=1;jettySize=auto;html=1;entryX=0.5;entryY=0;entryDx=0;entryDy=0;endArrow=open;endFill=0;endSize=20;" edge="1" parent="1" source="mVJcqzHK1oMDs0tAUVm2-15" target="mVJcqzHK1oMDs0tAUVm2-21">
          <mxGeometry relative="1" as="geometry" />
        </mxCell>
        <mxCell id="mVJcqzHK1oMDs0tAUVm2-23" value="&lt;font style=&quot;font-size: 30px;&quot;&gt;no&lt;/font&gt;" style="edgeLabel;html=1;align=center;verticalAlign=middle;resizable=0;points=[];" vertex="1" connectable="0" parent="mVJcqzHK1oMDs0tAUVm2-22">
          <mxGeometry x="-0.3657" y="-2" relative="1" as="geometry">
            <mxPoint x="31" y="2" as="offset" />
          </mxGeometry>
        </mxCell>
        <mxCell id="mVJcqzHK1oMDs0tAUVm2-15" value="&lt;font style=&quot;font-size: 25px;&quot;&gt;Document&lt;/font&gt;&lt;div style=&quot;font-size: 25px;&quot;&gt;&lt;font style=&quot;font-size: 25px;&quot;&gt;exist?&lt;/font&gt;&lt;/div&gt;" style="rhombus;whiteSpace=wrap;html=1;" vertex="1" parent="1">
          <mxGeometry x="1272.5" y="1280" width="185" height="180" as="geometry" />
        </mxCell>
        <mxCell id="mVJcqzHK1oMDs0tAUVm2-18" value="&lt;font style=&quot;font-size: 20px;&quot;&gt;Return state&lt;/font&gt;&lt;div style=&quot;font-size: 20px;&quot;&gt;&lt;font style=&quot;font-size: 20px;&quot;&gt;Status code: 200&lt;/font&gt;&lt;/div&gt;" style="shape=parallelogram;perimeter=parallelogramPerimeter;whiteSpace=wrap;html=1;fixedSize=1;fillColor=#cdeb8b;strokeColor=#36393d;" vertex="1" parent="1">
          <mxGeometry x="1485" y="1620" width="220" height="94" as="geometry" />
        </mxCell>
        <mxCell id="mVJcqzHK1oMDs0tAUVm2-26" style="edgeStyle=orthogonalEdgeStyle;rounded=0;orthogonalLoop=1;jettySize=auto;html=1;entryX=0.5;entryY=0;entryDx=0;entryDy=0;endSize=20;endArrow=open;endFill=0;" edge="1" parent="1" source="mVJcqzHK1oMDs0tAUVm2-21" target="mVJcqzHK1oMDs0tAUVm2-25">
          <mxGeometry relative="1" as="geometry" />
        </mxCell>
        <mxCell id="mVJcqzHK1oMDs0tAUVm2-27" value="&lt;font style=&quot;font-size: 30px;&quot;&gt;yes&lt;/font&gt;" style="edgeLabel;html=1;align=center;verticalAlign=middle;resizable=0;points=[];" vertex="1" connectable="0" parent="mVJcqzHK1oMDs0tAUVm2-26">
          <mxGeometry x="-0.6622" relative="1" as="geometry">
            <mxPoint as="offset" />
          </mxGeometry>
        </mxCell>
        <mxCell id="mVJcqzHK1oMDs0tAUVm2-29" style="edgeStyle=orthogonalEdgeStyle;rounded=0;orthogonalLoop=1;jettySize=auto;html=1;endArrow=open;endFill=0;endSize=20;" edge="1" parent="1" source="mVJcqzHK1oMDs0tAUVm2-21" target="mVJcqzHK1oMDs0tAUVm2-28">
          <mxGeometry relative="1" as="geometry" />
        </mxCell>
        <mxCell id="mVJcqzHK1oMDs0tAUVm2-30" value="&lt;font style=&quot;font-size: 30px;&quot;&gt;no&lt;/font&gt;" style="edgeLabel;html=1;align=center;verticalAlign=middle;resizable=0;points=[];" vertex="1" connectable="0" parent="mVJcqzHK1oMDs0tAUVm2-29">
          <mxGeometry x="-0.3535" y="4" relative="1" as="geometry">
            <mxPoint x="36" y="-4" as="offset" />
          </mxGeometry>
        </mxCell>
        <mxCell id="mVJcqzHK1oMDs0tAUVm2-21" value="&lt;font style=&quot;font-size: 25px;&quot;&gt;Server error?&lt;/font&gt;" style="rhombus;whiteSpace=wrap;html=1;" vertex="1" parent="1">
          <mxGeometry x="1060" y="1554" width="200" height="186" as="geometry" />
        </mxCell>
        <mxCell id="mVJcqzHK1oMDs0tAUVm2-25" value="&lt;font style=&quot;font-size: 20px;&quot;&gt;INTERNAL SERVER&amp;nbsp;&lt;/font&gt;&lt;div style=&quot;font-size: 20px;&quot;&gt;&lt;span style=&quot;background-color: initial;&quot;&gt;&lt;font style=&quot;font-size: 20px;&quot;&gt;ERROR&lt;/font&gt;&lt;/span&gt;&lt;div style=&quot;&quot;&gt;&lt;div style=&quot;&quot;&gt;&lt;font style=&quot;font-size: 20px;&quot;&gt;Status code: 500&lt;/font&gt;&lt;/div&gt;&lt;/div&gt;&lt;/div&gt;" style="shape=parallelogram;perimeter=parallelogramPerimeter;whiteSpace=wrap;html=1;fixedSize=1;fillColor=#f8cecc;strokeColor=#b85450;" vertex="1" parent="1">
          <mxGeometry x="1265" y="1940" width="270" height="94" as="geometry" />
        </mxCell>
        <mxCell id="mVJcqzHK1oMDs0tAUVm2-28" value="&lt;span style=&quot;font-size: 20px;&quot;&gt;&#39;Error in getting state&#39;&lt;/span&gt;" style="shape=parallelogram;perimeter=parallelogramPerimeter;whiteSpace=wrap;html=1;fixedSize=1;" vertex="1" parent="1">
          <mxGeometry x="770" y="1870" width="270" height="94" as="geometry" />
        </mxCell>
        <mxCell id="mVJcqzHK1oMDs0tAUVm2-35" style="edgeStyle=orthogonalEdgeStyle;rounded=0;orthogonalLoop=1;jettySize=auto;html=1;entryX=0.5;entryY=0;entryDx=0;entryDy=0;endArrow=open;endFill=0;endSize=20;" edge="1" parent="1" source="mVJcqzHK1oMDs0tAUVm2-31" target="mVJcqzHK1oMDs0tAUVm2-34">
          <mxGeometry relative="1" as="geometry">
            <Array as="points">
              <mxPoint x="1805" y="1690" />
            </Array>
          </mxGeometry>
        </mxCell>
        <mxCell id="mVJcqzHK1oMDs0tAUVm2-36" value="&lt;font style=&quot;font-size: 30px;&quot;&gt;no&lt;/font&gt;" style="edgeLabel;html=1;align=center;verticalAlign=middle;resizable=0;points=[];" vertex="1" connectable="0" parent="mVJcqzHK1oMDs0tAUVm2-35">
          <mxGeometry x="-0.7179" y="2" relative="1" as="geometry">
            <mxPoint x="4" y="-2" as="offset" />
          </mxGeometry>
        </mxCell>
        <mxCell id="mVJcqzHK1oMDs0tAUVm2-38" style="edgeStyle=orthogonalEdgeStyle;rounded=0;orthogonalLoop=1;jettySize=auto;html=1;entryX=0.5;entryY=0;entryDx=0;entryDy=0;endArrow=open;endFill=0;endSize=20;" edge="1" parent="1" source="mVJcqzHK1oMDs0tAUVm2-31" target="mVJcqzHK1oMDs0tAUVm2-37">
          <mxGeometry relative="1" as="geometry" />
        </mxCell>
        <mxCell id="mVJcqzHK1oMDs0tAUVm2-39" value="&lt;font style=&quot;font-size: 30px;&quot;&gt;yes&lt;/font&gt;" style="edgeLabel;html=1;align=center;verticalAlign=middle;resizable=0;points=[];" vertex="1" connectable="0" parent="mVJcqzHK1oMDs0tAUVm2-38">
          <mxGeometry x="-0.4651" y="2" relative="1" as="geometry">
            <mxPoint x="-60" y="-23" as="offset" />
          </mxGeometry>
        </mxCell>
        <mxCell id="mVJcqzHK1oMDs0tAUVm2-31" value="&lt;font style=&quot;font-size: 25px;&quot;&gt;Schema&amp;nbsp;&lt;/font&gt;&lt;div style=&quot;font-size: 25px;&quot;&gt;&lt;span style=&quot;background-color: initial;&quot;&gt;&lt;font style=&quot;font-size: 25px;&quot;&gt;exists?&lt;/font&gt;&lt;/span&gt;&lt;/div&gt;" style="rhombus;whiteSpace=wrap;html=1;" vertex="1" parent="1">
          <mxGeometry x="1940" y="1610" width="160" height="160" as="geometry" />
        </mxCell>
        <mxCell id="mVJcqzHK1oMDs0tAUVm2-34" value="&lt;span style=&quot;font-size: 20px;&quot;&gt;NOT FOUND&lt;/span&gt;&lt;div&gt;&lt;span style=&quot;font-size: 20px;&quot;&gt;Status code: 404&lt;/span&gt;&lt;/div&gt;" style="shape=parallelogram;perimeter=parallelogramPerimeter;whiteSpace=wrap;html=1;fixedSize=1;fillColor=#ffe6cc;strokeColor=#d79b00;" vertex="1" parent="1">
          <mxGeometry x="1670" y="2150" width="270" height="94" as="geometry" />
        </mxCell>
        <mxCell id="mVJcqzHK1oMDs0tAUVm2-41" style="edgeStyle=orthogonalEdgeStyle;rounded=0;orthogonalLoop=1;jettySize=auto;html=1;entryX=0.5;entryY=0;entryDx=0;entryDy=0;endArrow=open;endFill=0;" edge="1" parent="1" source="mVJcqzHK1oMDs0tAUVm2-37" target="mVJcqzHK1oMDs0tAUVm2-40">
          <mxGeometry relative="1" as="geometry" />
        </mxCell>
        <mxCell id="mVJcqzHK1oMDs0tAUVm2-37" value="&lt;font style=&quot;font-size: 24px;&quot;&gt;Load schema&lt;/font&gt;" style="rounded=0;whiteSpace=wrap;html=1;" vertex="1" parent="1">
          <mxGeometry x="2120" y="2100" width="196" height="98" as="geometry" />
        </mxCell>
        <mxCell id="mVJcqzHK1oMDs0tAUVm2-46" style="edgeStyle=orthogonalEdgeStyle;rounded=0;orthogonalLoop=1;jettySize=auto;html=1;entryX=0.5;entryY=0;entryDx=0;entryDy=0;endArrow=open;endFill=0;endSize=20;" edge="1" parent="1" source="mVJcqzHK1oMDs0tAUVm2-40" target="mVJcqzHK1oMDs0tAUVm2-45">
          <mxGeometry relative="1" as="geometry" />
        </mxCell>
        <mxCell id="mVJcqzHK1oMDs0tAUVm2-47" value="&lt;font style=&quot;font-size: 30px;&quot;&gt;yes&lt;/font&gt;" style="edgeLabel;html=1;align=center;verticalAlign=middle;resizable=0;points=[];" vertex="1" connectable="0" parent="mVJcqzHK1oMDs0tAUVm2-46">
          <mxGeometry x="-0.6479" y="2" relative="1" as="geometry">
            <mxPoint x="1" as="offset" />
          </mxGeometry>
        </mxCell>
        <mxCell id="mVJcqzHK1oMDs0tAUVm2-61" style="edgeStyle=orthogonalEdgeStyle;rounded=0;orthogonalLoop=1;jettySize=auto;html=1;entryX=0.5;entryY=0;entryDx=0;entryDy=0;endArrow=open;endFill=0;endSize=20;" edge="1" parent="1" source="mVJcqzHK1oMDs0tAUVm2-40" target="mVJcqzHK1oMDs0tAUVm2-60">
          <mxGeometry relative="1" as="geometry" />
        </mxCell>
        <mxCell id="mVJcqzHK1oMDs0tAUVm2-62" value="&lt;font style=&quot;font-size: 30px;&quot;&gt;no&lt;/font&gt;" style="edgeLabel;html=1;align=center;verticalAlign=middle;resizable=0;points=[];" vertex="1" connectable="0" parent="mVJcqzHK1oMDs0tAUVm2-61">
          <mxGeometry x="-0.3021" y="1" relative="1" as="geometry">
            <mxPoint x="39" y="-1" as="offset" />
          </mxGeometry>
        </mxCell>
        <mxCell id="mVJcqzHK1oMDs0tAUVm2-40" value="&lt;font style=&quot;font-size: 25px;&quot;&gt;Data&amp;nbsp;&lt;/font&gt;&lt;div style=&quot;font-size: 25px;&quot;&gt;&lt;font style=&quot;font-size: 25px;&quot;&gt;is valid?&lt;/font&gt;&lt;/div&gt;" style="rhombus;whiteSpace=wrap;html=1;" vertex="1" parent="1">
          <mxGeometry x="2138" y="2270" width="160" height="160" as="geometry" />
        </mxCell>
        <mxCell id="mVJcqzHK1oMDs0tAUVm2-51" style="edgeStyle=orthogonalEdgeStyle;rounded=0;orthogonalLoop=1;jettySize=auto;html=1;endArrow=open;endFill=0;endSize=20;" edge="1" parent="1" source="mVJcqzHK1oMDs0tAUVm2-45" target="mVJcqzHK1oMDs0tAUVm2-50">
          <mxGeometry relative="1" as="geometry" />
        </mxCell>
        <mxCell id="mVJcqzHK1oMDs0tAUVm2-45" value="&lt;font style=&quot;font-size: 24px;&quot;&gt;Add document&lt;/font&gt;&lt;div&gt;&lt;font style=&quot;font-size: 24px;&quot;&gt;to database&lt;/font&gt;&lt;/div&gt;" style="rounded=0;whiteSpace=wrap;html=1;" vertex="1" parent="1">
          <mxGeometry x="2310" y="2574" width="196" height="98" as="geometry" />
        </mxCell>
        <mxCell id="mVJcqzHK1oMDs0tAUVm2-57" style="edgeStyle=orthogonalEdgeStyle;rounded=0;orthogonalLoop=1;jettySize=auto;html=1;entryX=0.5;entryY=0;entryDx=0;entryDy=0;endArrow=open;endFill=0;endSize=20;" edge="1" parent="1" source="mVJcqzHK1oMDs0tAUVm2-50" target="mVJcqzHK1oMDs0tAUVm2-56">
          <mxGeometry relative="1" as="geometry" />
        </mxCell>
        <mxCell id="mVJcqzHK1oMDs0tAUVm2-58" value="&lt;font style=&quot;font-size: 30px;&quot;&gt;no&lt;/font&gt;" style="edgeLabel;html=1;align=center;verticalAlign=middle;resizable=0;points=[];" vertex="1" connectable="0" parent="mVJcqzHK1oMDs0tAUVm2-57">
          <mxGeometry x="-0.3614" y="2" relative="1" as="geometry">
            <mxPoint x="1" y="-2" as="offset" />
          </mxGeometry>
        </mxCell>
        <mxCell id="mVJcqzHK1oMDs0tAUVm2-50" value="&lt;font style=&quot;font-size: 24px;&quot;&gt;Document&lt;/font&gt;&lt;div style=&quot;font-size: 24px;&quot;&gt;&lt;font style=&quot;font-size: 24px;&quot;&gt;added?&lt;/font&gt;&lt;/div&gt;" style="rhombus;whiteSpace=wrap;html=1;" vertex="1" parent="1">
          <mxGeometry x="2324" y="2820" width="168" height="170" as="geometry" />
        </mxCell>
        <mxCell id="mVJcqzHK1oMDs0tAUVm2-53" value="&lt;div style=&quot;&quot;&gt;&lt;font size=&quot;1&quot; style=&quot;&quot;&gt;&lt;span style=&quot;font-size: 20px;&quot;&gt;CREATED&lt;/span&gt;&lt;/font&gt;&lt;/div&gt;&lt;div style=&quot;&quot;&gt;&lt;font size=&quot;1&quot; style=&quot;&quot;&gt;&lt;span style=&quot;font-size: 20px;&quot;&gt;Status code: 201&lt;/span&gt;&lt;/font&gt;&lt;/div&gt;" style="shape=parallelogram;perimeter=parallelogramPerimeter;whiteSpace=wrap;html=1;fixedSize=1;fillColor=#cdeb8b;strokeColor=#36393d;" vertex="1" parent="1">
          <mxGeometry x="2460" y="3144" width="220" height="94" as="geometry" />
        </mxCell>
        <mxCell id="mVJcqzHK1oMDs0tAUVm2-56" value="&lt;div style=&quot;&quot;&gt;&lt;font size=&quot;1&quot; style=&quot;&quot;&gt;&lt;span style=&quot;font-size: 20px;&quot;&gt;CONFLICT&lt;/span&gt;&lt;/font&gt;&lt;/div&gt;&lt;div style=&quot;&quot;&gt;&lt;font size=&quot;1&quot; style=&quot;&quot;&gt;&lt;span style=&quot;font-size: 20px;&quot;&gt;Status code: 409&lt;/span&gt;&lt;/font&gt;&lt;/div&gt;" style="shape=parallelogram;perimeter=parallelogramPerimeter;whiteSpace=wrap;html=1;fixedSize=1;fillColor=#ffe6cc;strokeColor=#d79b00;" vertex="1" parent="1">
          <mxGeometry x="2060" y="3080" width="220" height="94" as="geometry" />
        </mxCell>
        <mxCell id="mVJcqzHK1oMDs0tAUVm2-59" value="&lt;span style=&quot;font-size: 20px;&quot;&gt;BAD REQUEST&lt;/span&gt;&lt;br&gt;&lt;div&gt;&lt;span style=&quot;font-size: 20px;&quot;&gt;Status code: 400&lt;/span&gt;&lt;/div&gt;" style="shape=parallelogram;perimeter=parallelogramPerimeter;whiteSpace=wrap;html=1;fixedSize=1;fillColor=#ffe6cc;strokeColor=#d79b00;" vertex="1" parent="1">
          <mxGeometry x="1350" y="2830" width="270" height="94" as="geometry" />
        </mxCell>
        <mxCell id="mVJcqzHK1oMDs0tAUVm2-63" style="edgeStyle=orthogonalEdgeStyle;rounded=0;orthogonalLoop=1;jettySize=auto;html=1;entryX=0.5;entryY=0;entryDx=0;entryDy=0;endArrow=open;endFill=0;endSize=20;" edge="1" parent="1" source="mVJcqzHK1oMDs0tAUVm2-60" target="mVJcqzHK1oMDs0tAUVm2-59">
          <mxGeometry relative="1" as="geometry" />
        </mxCell>
        <mxCell id="mVJcqzHK1oMDs0tAUVm2-64" value="&lt;font style=&quot;font-size: 30px;&quot;&gt;no&lt;/font&gt;" style="edgeLabel;html=1;align=center;verticalAlign=middle;resizable=0;points=[];" vertex="1" connectable="0" parent="mVJcqzHK1oMDs0tAUVm2-63">
          <mxGeometry x="-0.2329" y="7" relative="1" as="geometry">
            <mxPoint x="45" y="-7" as="offset" />
          </mxGeometry>
        </mxCell>
        <mxCell id="mVJcqzHK1oMDs0tAUVm2-66" style="edgeStyle=orthogonalEdgeStyle;rounded=0;orthogonalLoop=1;jettySize=auto;html=1;entryX=0.5;entryY=0;entryDx=0;entryDy=0;exitX=1;exitY=0.5;exitDx=0;exitDy=0;endArrow=open;endFill=0;endSize=20;" edge="1" parent="1" source="mVJcqzHK1oMDs0tAUVm2-60" target="mVJcqzHK1oMDs0tAUVm2-65">
          <mxGeometry relative="1" as="geometry" />
        </mxCell>
        <mxCell id="mVJcqzHK1oMDs0tAUVm2-67" value="&lt;font style=&quot;font-size: 30px;&quot;&gt;yes&lt;/font&gt;" style="edgeLabel;html=1;align=center;verticalAlign=middle;resizable=0;points=[];" vertex="1" connectable="0" parent="mVJcqzHK1oMDs0tAUVm2-66">
          <mxGeometry x="-0.5393" y="1" relative="1" as="geometry">
            <mxPoint x="-1" as="offset" />
          </mxGeometry>
        </mxCell>
        <mxCell id="mVJcqzHK1oMDs0tAUVm2-60" value="&lt;font style=&quot;font-size: 25px;&quot;&gt;Server&amp;nbsp;&lt;/font&gt;&lt;div&gt;&lt;font style=&quot;font-size: 25px;&quot;&gt;&lt;span style=&quot;background-color: initial;&quot;&gt;error?&lt;/span&gt;&lt;/font&gt;&lt;/div&gt;" style="rhombus;whiteSpace=wrap;html=1;" vertex="1" parent="1">
          <mxGeometry x="1660" y="2574" width="160" height="160" as="geometry" />
        </mxCell>
        <mxCell id="mVJcqzHK1oMDs0tAUVm2-65" value="&lt;font style=&quot;font-size: 20px;&quot;&gt;INTERNAL SERVER&amp;nbsp;&lt;/font&gt;&lt;div style=&quot;font-size: 20px;&quot;&gt;&lt;span style=&quot;background-color: initial;&quot;&gt;&lt;font style=&quot;font-size: 20px;&quot;&gt;ERROR&lt;/font&gt;&lt;/span&gt;&lt;div style=&quot;&quot;&gt;&lt;div style=&quot;&quot;&gt;&lt;font style=&quot;font-size: 20px;&quot;&gt;Status code: 500&lt;/font&gt;&lt;/div&gt;&lt;/div&gt;&lt;/div&gt;" style="shape=parallelogram;perimeter=parallelogramPerimeter;whiteSpace=wrap;html=1;fixedSize=1;fillColor=#f8cecc;strokeColor=#b85450;" vertex="1" parent="1">
          <mxGeometry x="1820" y="2830" width="270" height="94" as="geometry" />
        </mxCell>
        <mxCell id="mVJcqzHK1oMDs0tAUVm2-163" style="edgeStyle=orthogonalEdgeStyle;rounded=0;orthogonalLoop=1;jettySize=auto;html=1;entryX=0.5;entryY=0;entryDx=0;entryDy=0;endArrow=open;endFill=0;endSize=20;" edge="1" parent="1" source="mVJcqzHK1oMDs0tAUVm2-75" target="mVJcqzHK1oMDs0tAUVm2-99">
          <mxGeometry relative="1" as="geometry" />
        </mxCell>
        <mxCell id="mVJcqzHK1oMDs0tAUVm2-164" value="&lt;font style=&quot;font-size: 30px;&quot;&gt;no&lt;/font&gt;" style="edgeLabel;html=1;align=center;verticalAlign=middle;resizable=0;points=[];" vertex="1" connectable="0" parent="mVJcqzHK1oMDs0tAUVm2-163">
          <mxGeometry x="-0.6094" relative="1" as="geometry">
            <mxPoint y="1" as="offset" />
          </mxGeometry>
        </mxCell>
        <mxCell id="mVJcqzHK1oMDs0tAUVm2-165" style="edgeStyle=orthogonalEdgeStyle;rounded=0;orthogonalLoop=1;jettySize=auto;html=1;entryX=0;entryY=0.5;entryDx=0;entryDy=0;endArrow=open;endFill=0;endSize=20;" edge="1" parent="1" source="mVJcqzHK1oMDs0tAUVm2-75" target="mVJcqzHK1oMDs0tAUVm2-77">
          <mxGeometry relative="1" as="geometry" />
        </mxCell>
        <mxCell id="mVJcqzHK1oMDs0tAUVm2-166" value="&lt;font style=&quot;font-size: 30px;&quot;&gt;yes&lt;/font&gt;" style="edgeLabel;html=1;align=center;verticalAlign=middle;resizable=0;points=[];" vertex="1" connectable="0" parent="mVJcqzHK1oMDs0tAUVm2-165">
          <mxGeometry x="0.0219" relative="1" as="geometry">
            <mxPoint as="offset" />
          </mxGeometry>
        </mxCell>
        <mxCell id="mVJcqzHK1oMDs0tAUVm2-75" value="&lt;font style=&quot;font-size: 25px;&quot;&gt;Server&amp;nbsp;&lt;/font&gt;&lt;div&gt;&lt;font style=&quot;font-size: 25px;&quot;&gt;error?&lt;/font&gt;&lt;/div&gt;" style="rhombus;whiteSpace=wrap;html=1;" vertex="1" parent="1">
          <mxGeometry x="2280" y="1579" width="160" height="160" as="geometry" />
        </mxCell>
        <mxCell id="mVJcqzHK1oMDs0tAUVm2-77" value="&lt;font style=&quot;font-size: 20px;&quot;&gt;INTERNAL SERVER&amp;nbsp;&lt;/font&gt;&lt;div style=&quot;font-size: 20px;&quot;&gt;&lt;span style=&quot;background-color: initial;&quot;&gt;&lt;font style=&quot;font-size: 20px;&quot;&gt;ERROR&lt;/font&gt;&lt;/span&gt;&lt;div style=&quot;&quot;&gt;&lt;div style=&quot;&quot;&gt;&lt;font style=&quot;font-size: 20px;&quot;&gt;Status code: 500&lt;/font&gt;&lt;/div&gt;&lt;/div&gt;&lt;/div&gt;" style="shape=parallelogram;perimeter=parallelogramPerimeter;whiteSpace=wrap;html=1;fixedSize=1;fillColor=#f8cecc;strokeColor=#b85450;" vertex="1" parent="1">
          <mxGeometry x="2550" y="1612" width="270" height="94" as="geometry" />
        </mxCell>
        <mxCell id="mVJcqzHK1oMDs0tAUVm2-160" style="edgeStyle=orthogonalEdgeStyle;rounded=0;orthogonalLoop=1;jettySize=auto;html=1;endArrow=open;endFill=0;endSize=20;" edge="1" parent="1" source="mVJcqzHK1oMDs0tAUVm2-86" target="mVJcqzHK1oMDs0tAUVm2-89">
          <mxGeometry relative="1" as="geometry" />
        </mxCell>
        <mxCell id="mVJcqzHK1oMDs0tAUVm2-86" value="&lt;span style=&quot;font-size: 24px;&quot;&gt;Update document&lt;/span&gt;&lt;div&gt;&lt;span style=&quot;font-size: 24px;&quot;&gt;settings&lt;/span&gt;&lt;/div&gt;" style="rounded=0;whiteSpace=wrap;html=1;" vertex="1" parent="1">
          <mxGeometry x="2431" y="1080" width="238" height="98" as="geometry" />
        </mxCell>
        <mxCell id="mVJcqzHK1oMDs0tAUVm2-161" style="edgeStyle=orthogonalEdgeStyle;rounded=0;orthogonalLoop=1;jettySize=auto;html=1;entryX=0.5;entryY=0;entryDx=0;entryDy=0;endArrow=open;endFill=0;" edge="1" parent="1" source="mVJcqzHK1oMDs0tAUVm2-89" target="mVJcqzHK1oMDs0tAUVm2-75">
          <mxGeometry relative="1" as="geometry" />
        </mxCell>
        <mxCell id="mVJcqzHK1oMDs0tAUVm2-162" value="&lt;font style=&quot;font-size: 30px;&quot;&gt;no&lt;/font&gt;" style="edgeLabel;html=1;align=center;verticalAlign=middle;resizable=0;points=[];" vertex="1" connectable="0" parent="mVJcqzHK1oMDs0tAUVm2-161">
          <mxGeometry x="-0.4301" y="1" relative="1" as="geometry">
            <mxPoint x="39" y="-1" as="offset" />
          </mxGeometry>
        </mxCell>
        <mxCell id="mVJcqzHK1oMDs0tAUVm2-89" value="&lt;font style=&quot;font-size: 25px;&quot;&gt;Updated?&lt;/font&gt;" style="rhombus;whiteSpace=wrap;html=1;" vertex="1" parent="1">
          <mxGeometry x="2470" y="1328" width="160" height="160" as="geometry" />
        </mxCell>
        <mxCell id="mVJcqzHK1oMDs0tAUVm2-93" value="&lt;font style=&quot;font-size: 23px;&quot;&gt;OK&lt;/font&gt;&lt;br&gt;&lt;div style=&quot;font-size: 20px;&quot;&gt;&lt;font style=&quot;font-size: 20px;&quot;&gt;Status code: 200&lt;/font&gt;&lt;/div&gt;" style="shape=parallelogram;perimeter=parallelogramPerimeter;whiteSpace=wrap;html=1;fixedSize=1;fillColor=#cdeb8b;strokeColor=#36393d;" vertex="1" parent="1">
          <mxGeometry x="2600" y="2336" width="220" height="94" as="geometry" />
        </mxCell>
        <mxCell id="mVJcqzHK1oMDs0tAUVm2-98" style="edgeStyle=orthogonalEdgeStyle;rounded=0;orthogonalLoop=1;jettySize=auto;html=1;endArrow=open;endFill=0;endSize=20;" edge="1" parent="1" source="mVJcqzHK1oMDs0tAUVm2-96" target="mVJcqzHK1oMDs0tAUVm2-31">
          <mxGeometry relative="1" as="geometry" />
        </mxCell>
        <mxCell id="mVJcqzHK1oMDs0tAUVm2-96" value="&lt;span style=&quot;font-size: 24px;&quot;&gt;Get schema path&lt;/span&gt;" style="rounded=0;whiteSpace=wrap;html=1;" vertex="1" parent="1">
          <mxGeometry x="1901" y="1230" width="238" height="98" as="geometry" />
        </mxCell>
        <mxCell id="mVJcqzHK1oMDs0tAUVm2-99" value="&lt;span style=&quot;font-size: 20px;&quot;&gt;BAD REQUEST&lt;/span&gt;&lt;br&gt;&lt;div&gt;&lt;span style=&quot;font-size: 20px;&quot;&gt;Status code: 400&lt;/span&gt;&lt;/div&gt;" style="shape=parallelogram;perimeter=parallelogramPerimeter;whiteSpace=wrap;html=1;fixedSize=1;fillColor=#ffe6cc;strokeColor=#d79b00;" vertex="1" parent="1">
          <mxGeometry x="2310" y="1910" width="270" height="94" as="geometry" />
        </mxCell>
        <mxCell id="mVJcqzHK1oMDs0tAUVm2-107" value="&lt;font style=&quot;font-size: 30px;&quot;&gt;Send message to&lt;/font&gt;&lt;div style=&quot;font-size: 30px;&quot;&gt;&lt;font style=&quot;font-size: 30px;&quot;&gt;Kafka broker&lt;/font&gt;&lt;/div&gt;" style="rounded=0;whiteSpace=wrap;html=1;" vertex="1" parent="1">
          <mxGeometry x="2710" y="3150" width="328" height="88" as="geometry" />
        </mxCell>
        <mxCell id="mVJcqzHK1oMDs0tAUVm2-108" value="&lt;font style=&quot;font-size: 30px;&quot;&gt;Send m&lt;span style=&quot;background-color: initial;&quot;&gt;essage to&lt;/span&gt;&lt;/font&gt;&lt;div style=&quot;font-size: 30px;&quot;&gt;&lt;span style=&quot;background-color: initial;&quot;&gt;&lt;font style=&quot;font-size: 30px;&quot;&gt;Kafka broker&lt;/font&gt;&lt;/span&gt;&lt;/div&gt;" style="rounded=0;whiteSpace=wrap;html=1;" vertex="1" parent="1">
          <mxGeometry x="2830" y="2130" width="328" height="88" as="geometry" />
        </mxCell>
        <mxCell id="mVJcqzHK1oMDs0tAUVm2-178" style="edgeStyle=orthogonalEdgeStyle;rounded=0;orthogonalLoop=1;jettySize=auto;html=1;entryX=0.5;entryY=0;entryDx=0;entryDy=0;endArrow=open;endFill=0;endSize=20;" edge="1" parent="1" source="mVJcqzHK1oMDs0tAUVm2-117" target="mVJcqzHK1oMDs0tAUVm2-127">
          <mxGeometry relative="1" as="geometry" />
        </mxCell>
        <mxCell id="mVJcqzHK1oMDs0tAUVm2-180" value="&lt;font style=&quot;font-size: 30px;&quot;&gt;no&lt;/font&gt;" style="edgeLabel;html=1;align=center;verticalAlign=middle;resizable=0;points=[];" vertex="1" connectable="0" parent="mVJcqzHK1oMDs0tAUVm2-178">
          <mxGeometry x="-0.123" relative="1" as="geometry">
            <mxPoint as="offset" />
          </mxGeometry>
        </mxCell>
        <mxCell id="mVJcqzHK1oMDs0tAUVm2-179" style="edgeStyle=orthogonalEdgeStyle;rounded=0;orthogonalLoop=1;jettySize=auto;html=1;entryX=0;entryY=0.5;entryDx=0;entryDy=0;endArrow=open;endFill=0;endSize=20;" edge="1" parent="1" source="mVJcqzHK1oMDs0tAUVm2-117" target="mVJcqzHK1oMDs0tAUVm2-118">
          <mxGeometry relative="1" as="geometry" />
        </mxCell>
        <mxCell id="mVJcqzHK1oMDs0tAUVm2-181" value="&lt;font style=&quot;font-size: 30px;&quot;&gt;yes&lt;/font&gt;" style="edgeLabel;html=1;align=center;verticalAlign=middle;resizable=0;points=[];" vertex="1" connectable="0" parent="mVJcqzHK1oMDs0tAUVm2-179">
          <mxGeometry x="-0.0725" y="-1" relative="1" as="geometry">
            <mxPoint as="offset" />
          </mxGeometry>
        </mxCell>
        <mxCell id="mVJcqzHK1oMDs0tAUVm2-117" value="&lt;font style=&quot;font-size: 25px;&quot;&gt;Server&amp;nbsp;&lt;/font&gt;&lt;div&gt;&lt;font style=&quot;font-size: 25px;&quot;&gt;error?&lt;/font&gt;&lt;/div&gt;" style="rhombus;whiteSpace=wrap;html=1;" vertex="1" parent="1">
          <mxGeometry x="3080" y="1660" width="160" height="160" as="geometry" />
        </mxCell>
        <mxCell id="mVJcqzHK1oMDs0tAUVm2-118" value="&lt;font style=&quot;font-size: 20px;&quot;&gt;INTERNAL SERVER&amp;nbsp;&lt;/font&gt;&lt;div style=&quot;font-size: 20px;&quot;&gt;&lt;span style=&quot;background-color: initial;&quot;&gt;&lt;font style=&quot;font-size: 20px;&quot;&gt;ERROR&lt;/font&gt;&lt;/span&gt;&lt;div style=&quot;&quot;&gt;&lt;div style=&quot;&quot;&gt;&lt;font style=&quot;font-size: 20px;&quot;&gt;Status code: 500&lt;/font&gt;&lt;/div&gt;&lt;/div&gt;&lt;/div&gt;" style="shape=parallelogram;perimeter=parallelogramPerimeter;whiteSpace=wrap;html=1;fixedSize=1;fillColor=#f8cecc;strokeColor=#b85450;" vertex="1" parent="1">
          <mxGeometry x="3360" y="1693" width="270" height="94" as="geometry" />
        </mxCell>
        <mxCell id="mVJcqzHK1oMDs0tAUVm2-171" style="edgeStyle=orthogonalEdgeStyle;rounded=0;orthogonalLoop=1;jettySize=auto;html=1;entryX=0.5;entryY=0;entryDx=0;entryDy=0;endArrow=open;endFill=0;endSize=20;" edge="1" parent="1" source="mVJcqzHK1oMDs0tAUVm2-120" target="mVJcqzHK1oMDs0tAUVm2-125">
          <mxGeometry relative="1" as="geometry">
            <Array as="points">
              <mxPoint x="3170" y="1310" />
              <mxPoint x="3380" y="1310" />
            </Array>
          </mxGeometry>
        </mxCell>
        <mxCell id="mVJcqzHK1oMDs0tAUVm2-120" value="&lt;span style=&quot;font-size: 24px;&quot;&gt;Update document&lt;/span&gt;&lt;div&gt;&lt;span style=&quot;font-size: 24px;&quot;&gt;specification&lt;/span&gt;&lt;/div&gt;" style="rounded=0;whiteSpace=wrap;html=1;" vertex="1" parent="1">
          <mxGeometry x="3051" y="1060" width="238" height="98" as="geometry" />
        </mxCell>
        <mxCell id="mVJcqzHK1oMDs0tAUVm2-175" style="edgeStyle=orthogonalEdgeStyle;rounded=0;orthogonalLoop=1;jettySize=auto;html=1;entryX=0.5;entryY=0;entryDx=0;entryDy=0;endArrow=open;endFill=0;endSize=20;" edge="1" parent="1" source="mVJcqzHK1oMDs0tAUVm2-125" target="mVJcqzHK1oMDs0tAUVm2-117">
          <mxGeometry relative="1" as="geometry" />
        </mxCell>
        <mxCell id="mVJcqzHK1oMDs0tAUVm2-176" value="&lt;font style=&quot;font-size: 30px;&quot;&gt;no&lt;/font&gt;" style="edgeLabel;html=1;align=center;verticalAlign=middle;resizable=0;points=[];" vertex="1" connectable="0" parent="mVJcqzHK1oMDs0tAUVm2-175">
          <mxGeometry x="-0.2678" y="2" relative="1" as="geometry">
            <mxPoint x="19" y="-5" as="offset" />
          </mxGeometry>
        </mxCell>
        <mxCell id="mVJcqzHK1oMDs0tAUVm2-125" value="&lt;font style=&quot;font-size: 25px;&quot;&gt;Updated?&lt;/font&gt;" style="rhombus;whiteSpace=wrap;html=1;" vertex="1" parent="1">
          <mxGeometry x="3300" y="1450" width="160" height="160" as="geometry" />
        </mxCell>
        <mxCell id="mVJcqzHK1oMDs0tAUVm2-126" value="&lt;font style=&quot;font-size: 23px;&quot;&gt;OK&lt;br&gt;&lt;/font&gt;&lt;div style=&quot;font-size: 23px;&quot;&gt;&lt;font style=&quot;font-size: 23px;&quot;&gt;Status code: 200&lt;/font&gt;&lt;/div&gt;" style="shape=parallelogram;perimeter=parallelogramPerimeter;whiteSpace=wrap;html=1;fixedSize=1;fillColor=#cdeb8b;strokeColor=#36393d;" vertex="1" parent="1">
          <mxGeometry x="3400" y="2100" width="220" height="94" as="geometry" />
        </mxCell>
        <mxCell id="mVJcqzHK1oMDs0tAUVm2-127" value="&lt;span style=&quot;font-size: 20px;&quot;&gt;BAD REQUEST&lt;/span&gt;&lt;br&gt;&lt;div&gt;&lt;span style=&quot;font-size: 20px;&quot;&gt;Status code: 400&lt;/span&gt;&lt;/div&gt;" style="shape=parallelogram;perimeter=parallelogramPerimeter;whiteSpace=wrap;html=1;fixedSize=1;fillColor=#ffe6cc;strokeColor=#d79b00;" vertex="1" parent="1">
          <mxGeometry x="3150" y="1940" width="270" height="94" as="geometry" />
        </mxCell>
        <mxCell id="mVJcqzHK1oMDs0tAUVm2-128" value="&lt;font style=&quot;font-size: 30px;&quot;&gt;Send m&lt;span style=&quot;background-color: initial;&quot;&gt;essage to&lt;/span&gt;&lt;/font&gt;&lt;div style=&quot;font-size: 30px;&quot;&gt;&lt;span style=&quot;background-color: initial;&quot;&gt;&lt;font style=&quot;font-size: 30px;&quot;&gt;Kafka broker&lt;/font&gt;&lt;/span&gt;&lt;/div&gt;" style="rounded=0;whiteSpace=wrap;html=1;" vertex="1" parent="1">
          <mxGeometry x="3642" y="2230" width="328" height="88" as="geometry" />
        </mxCell>
        <mxCell id="mVJcqzHK1oMDs0tAUVm2-131" value="" style="strokeWidth=1;html=1;shape=mxgraph.flowchart.annotation_2;align=left;labelPosition=right;pointerEvents=1;rotation=90;" vertex="1" parent="1">
          <mxGeometry x="2790" y="1730" width="135" height="270" as="geometry" />
        </mxCell>
        <mxCell id="mVJcqzHK1oMDs0tAUVm2-132" style="edgeStyle=orthogonalEdgeStyle;rounded=0;orthogonalLoop=1;jettySize=auto;html=1;entryX=0;entryY=0.5;entryDx=0;entryDy=0;entryPerimeter=0;endArrow=none;endFill=0;" edge="1" parent="1" source="mVJcqzHK1oMDs0tAUVm2-89" target="mVJcqzHK1oMDs0tAUVm2-131">
          <mxGeometry relative="1" as="geometry">
            <Array as="points">
              <mxPoint x="2857" y="1408" />
            </Array>
          </mxGeometry>
        </mxCell>
        <mxCell id="mVJcqzHK1oMDs0tAUVm2-133" value="&lt;font style=&quot;font-size: 30px;&quot;&gt;yes&lt;/font&gt;" style="edgeLabel;html=1;align=center;verticalAlign=middle;resizable=0;points=[];" vertex="1" connectable="0" parent="mVJcqzHK1oMDs0tAUVm2-132">
          <mxGeometry x="-0.1086" y="3" relative="1" as="geometry">
            <mxPoint x="-121" y="-48" as="offset" />
          </mxGeometry>
        </mxCell>
        <mxCell id="mVJcqzHK1oMDs0tAUVm2-134" value="" style="endArrow=open;html=1;rounded=0;exitX=1;exitY=1;exitDx=0;exitDy=0;exitPerimeter=0;entryX=0.556;entryY=0.002;entryDx=0;entryDy=0;entryPerimeter=0;endFill=0;endSize=20;" edge="1" parent="1" source="mVJcqzHK1oMDs0tAUVm2-131" target="mVJcqzHK1oMDs0tAUVm2-93">
          <mxGeometry width="50" height="50" relative="1" as="geometry">
            <mxPoint x="2610" y="1920" as="sourcePoint" />
            <mxPoint x="2660" y="1870" as="targetPoint" />
          </mxGeometry>
        </mxCell>
        <mxCell id="mVJcqzHK1oMDs0tAUVm2-135" value="" style="endArrow=open;html=1;rounded=0;exitX=1;exitY=0;exitDx=0;exitDy=0;exitPerimeter=0;entryX=0.5;entryY=0;entryDx=0;entryDy=0;endFill=0;endSize=20;" edge="1" parent="1" source="mVJcqzHK1oMDs0tAUVm2-131" target="mVJcqzHK1oMDs0tAUVm2-108">
          <mxGeometry width="50" height="50" relative="1" as="geometry">
            <mxPoint x="2820" y="2020" as="sourcePoint" />
            <mxPoint x="2870" y="1970" as="targetPoint" />
          </mxGeometry>
        </mxCell>
        <mxCell id="mVJcqzHK1oMDs0tAUVm2-147" value="" style="strokeWidth=1;html=1;shape=mxgraph.flowchart.annotation_2;align=left;labelPosition=right;pointerEvents=1;rotation=90;" vertex="1" parent="1">
          <mxGeometry x="3602.5" y="1800" width="135" height="270" as="geometry" />
        </mxCell>
        <mxCell id="mVJcqzHK1oMDs0tAUVm2-152" value="" style="endArrow=open;html=1;rounded=0;exitX=1;exitY=0;exitDx=0;exitDy=0;exitPerimeter=0;entryX=0.5;entryY=0;entryDx=0;entryDy=0;endFill=0;endSize=20;" edge="1" parent="1" source="mVJcqzHK1oMDs0tAUVm2-147" target="mVJcqzHK1oMDs0tAUVm2-128">
          <mxGeometry width="50" height="50" relative="1" as="geometry">
            <mxPoint x="3920" y="1990" as="sourcePoint" />
            <mxPoint x="3970" y="1940" as="targetPoint" />
          </mxGeometry>
        </mxCell>
        <mxCell id="mVJcqzHK1oMDs0tAUVm2-157" style="edgeStyle=orthogonalEdgeStyle;rounded=0;orthogonalLoop=1;jettySize=auto;html=1;endArrow=open;endFill=0;endSize=20;" edge="1" parent="1" source="mVJcqzHK1oMDs0tAUVm2-153" target="mVJcqzHK1oMDs0tAUVm2-15">
          <mxGeometry relative="1" as="geometry" />
        </mxCell>
        <mxCell id="mVJcqzHK1oMDs0tAUVm2-153" value="&lt;font style=&quot;font-size: 29px;&quot;&gt;Getting schema path&lt;/font&gt;" style="rounded=0;whiteSpace=wrap;html=1;" vertex="1" parent="1">
          <mxGeometry x="1195" y="1050" width="340" height="80" as="geometry" />
        </mxCell>
        <mxCell id="mVJcqzHK1oMDs0tAUVm2-155" style="edgeStyle=orthogonalEdgeStyle;rounded=0;orthogonalLoop=1;jettySize=auto;html=1;entryX=0.5;entryY=0;entryDx=0;entryDy=0;endArrow=open;endFill=0;endSize=20;" edge="1" parent="1" source="mVJcqzHK1oMDs0tAUVm2-154" target="_XFG_jNddfj7azUs-ilm-26">
          <mxGeometry relative="1" as="geometry" />
        </mxCell>
        <mxCell id="mVJcqzHK1oMDs0tAUVm2-154" value="&lt;font style=&quot;font-size: 29px;&quot;&gt;Getting schema path&lt;/font&gt;" style="rounded=0;whiteSpace=wrap;html=1;" vertex="1" parent="1">
          <mxGeometry x="340" y="1050" width="340" height="80" as="geometry" />
        </mxCell>
        <mxCell id="mVJcqzHK1oMDs0tAUVm2-169" value="" style="endArrow=open;html=1;rounded=0;entryX=0.5;entryY=0;entryDx=0;entryDy=0;endFill=0;endSize=20;" edge="1" parent="1" target="_XFG_jNddfj7azUs-ilm-11">
          <mxGeometry width="50" height="50" relative="1" as="geometry">
            <mxPoint x="3170" y="790" as="sourcePoint" />
            <mxPoint x="3270" y="790" as="targetPoint" />
          </mxGeometry>
        </mxCell>
        <mxCell id="mVJcqzHK1oMDs0tAUVm2-172" style="edgeStyle=orthogonalEdgeStyle;rounded=0;orthogonalLoop=1;jettySize=auto;html=1;entryX=0;entryY=0.5;entryDx=0;entryDy=0;entryPerimeter=0;endArrow=none;endFill=0;" edge="1" parent="1" source="mVJcqzHK1oMDs0tAUVm2-125" target="mVJcqzHK1oMDs0tAUVm2-147">
          <mxGeometry relative="1" as="geometry" />
        </mxCell>
        <mxCell id="mVJcqzHK1oMDs0tAUVm2-177" value="&lt;font style=&quot;font-size: 30px;&quot;&gt;yes&lt;/font&gt;" style="edgeLabel;html=1;align=center;verticalAlign=middle;resizable=0;points=[];" vertex="1" connectable="0" parent="mVJcqzHK1oMDs0tAUVm2-172">
          <mxGeometry x="-0.6714" y="2" relative="1" as="geometry">
            <mxPoint as="offset" />
          </mxGeometry>
        </mxCell>
        <mxCell id="mVJcqzHK1oMDs0tAUVm2-174" value="" style="endArrow=open;html=1;rounded=0;exitX=1;exitY=1;exitDx=0;exitDy=0;exitPerimeter=0;entryX=0.613;entryY=0;entryDx=0;entryDy=0;entryPerimeter=0;endFill=0;endSize=20;" edge="1" parent="1" source="mVJcqzHK1oMDs0tAUVm2-147" target="mVJcqzHK1oMDs0tAUVm2-126">
          <mxGeometry width="50" height="50" relative="1" as="geometry">
            <mxPoint x="3440" y="2180" as="sourcePoint" />
            <mxPoint x="3490" y="2130" as="targetPoint" />
          </mxGeometry>
        </mxCell>
        <mxCell id="mVJcqzHK1oMDs0tAUVm2-188" style="edgeStyle=orthogonalEdgeStyle;rounded=0;orthogonalLoop=1;jettySize=auto;html=1;entryX=0.5;entryY=0;entryDx=0;entryDy=0;endArrow=open;endFill=0;endSize=20;" edge="1" parent="1" source="mVJcqzHK1oMDs0tAUVm2-185" target="mVJcqzHK1oMDs0tAUVm2-187">
          <mxGeometry relative="1" as="geometry" />
        </mxCell>
        <mxCell id="mVJcqzHK1oMDs0tAUVm2-189" value="&lt;font style=&quot;font-size: 30px;&quot;&gt;no&lt;/font&gt;" style="edgeLabel;html=1;align=center;verticalAlign=middle;resizable=0;points=[];" vertex="1" connectable="0" parent="mVJcqzHK1oMDs0tAUVm2-188">
          <mxGeometry x="-0.6078" y="1" relative="1" as="geometry">
            <mxPoint x="-1" as="offset" />
          </mxGeometry>
        </mxCell>
        <mxCell id="mVJcqzHK1oMDs0tAUVm2-191" style="edgeStyle=orthogonalEdgeStyle;rounded=0;orthogonalLoop=1;jettySize=auto;html=1;entryX=0;entryY=0.5;entryDx=0;entryDy=0;endArrow=open;endFill=0;endSize=20;" edge="1" parent="1" source="mVJcqzHK1oMDs0tAUVm2-185" target="mVJcqzHK1oMDs0tAUVm2-190">
          <mxGeometry relative="1" as="geometry">
            <Array as="points">
              <mxPoint x="3755" y="1799" />
            </Array>
          </mxGeometry>
        </mxCell>
        <mxCell id="mVJcqzHK1oMDs0tAUVm2-192" value="&lt;font style=&quot;font-size: 30px;&quot;&gt;yes&lt;/font&gt;" style="edgeLabel;html=1;align=center;verticalAlign=middle;resizable=0;points=[];" vertex="1" connectable="0" parent="mVJcqzHK1oMDs0tAUVm2-191">
          <mxGeometry x="-0.5339" relative="1" as="geometry">
            <mxPoint as="offset" />
          </mxGeometry>
        </mxCell>
        <mxCell id="mVJcqzHK1oMDs0tAUVm2-185" value="&lt;font style=&quot;font-size: 25px;&quot;&gt;State value in&amp;nbsp;&lt;/font&gt;&lt;div style=&quot;font-size: 25px;&quot;&gt;&lt;font style=&quot;font-size: 25px;&quot;&gt;(&#39;NEW&#39;, &#39;INSTALLING&#39;, &#39;RUNNING&#39;)?&lt;/font&gt;&lt;/div&gt;" style="rhombus;whiteSpace=wrap;html=1;" vertex="1" parent="1">
          <mxGeometry x="3589.28" y="1100" width="331.43" height="290" as="geometry" />
        </mxCell>
        <mxCell id="mVJcqzHK1oMDs0tAUVm2-187" value="&lt;span style=&quot;font-size: 20px;&quot;&gt;BAD REQUEST&lt;/span&gt;&lt;br&gt;&lt;div&gt;&lt;span style=&quot;font-size: 20px;&quot;&gt;Status code: 400&lt;/span&gt;&lt;/div&gt;" style="shape=parallelogram;perimeter=parallelogramPerimeter;whiteSpace=wrap;html=1;fixedSize=1;fillColor=#ffe6cc;strokeColor=#d79b00;" vertex="1" parent="1">
          <mxGeometry x="3930" y="1488" width="270" height="94" as="geometry" />
        </mxCell>
        <mxCell id="mVJcqzHK1oMDs0tAUVm2-194" style="edgeStyle=orthogonalEdgeStyle;rounded=0;orthogonalLoop=1;jettySize=auto;html=1;entryX=0.5;entryY=0;entryDx=0;entryDy=0;endSize=20;endArrow=open;endFill=0;" edge="1" parent="1" source="mVJcqzHK1oMDs0tAUVm2-190" target="mVJcqzHK1oMDs0tAUVm2-193">
          <mxGeometry relative="1" as="geometry" />
        </mxCell>
        <mxCell id="mVJcqzHK1oMDs0tAUVm2-190" value="&lt;span style=&quot;font-size: 24px;&quot;&gt;Update document&lt;/span&gt;&lt;div&gt;&lt;span style=&quot;font-size: 24px;&quot;&gt;state&lt;/span&gt;&lt;/div&gt;" style="rounded=0;whiteSpace=wrap;html=1;" vertex="1" parent="1">
          <mxGeometry x="3970" y="1750" width="238" height="98" as="geometry" />
        </mxCell>
        <mxCell id="mVJcqzHK1oMDs0tAUVm2-196" style="edgeStyle=orthogonalEdgeStyle;rounded=0;orthogonalLoop=1;jettySize=auto;html=1;entryX=0.5;entryY=0;entryDx=0;entryDy=0;endArrow=open;endFill=0;endSize=30;" edge="1" parent="1" source="mVJcqzHK1oMDs0tAUVm2-193" target="mVJcqzHK1oMDs0tAUVm2-195">
          <mxGeometry relative="1" as="geometry" />
        </mxCell>
        <mxCell id="mVJcqzHK1oMDs0tAUVm2-197" value="&lt;font style=&quot;font-size: 30px;&quot;&gt;yes&lt;/font&gt;" style="edgeLabel;html=1;align=center;verticalAlign=middle;resizable=0;points=[];" vertex="1" connectable="0" parent="mVJcqzHK1oMDs0tAUVm2-196">
          <mxGeometry x="-0.6174" y="-3" relative="1" as="geometry">
            <mxPoint x="1" y="-3" as="offset" />
          </mxGeometry>
        </mxCell>
        <mxCell id="mVJcqzHK1oMDs0tAUVm2-199" style="edgeStyle=orthogonalEdgeStyle;rounded=0;orthogonalLoop=1;jettySize=auto;html=1;entryX=0.5;entryY=0;entryDx=0;entryDy=0;endSize=20;endArrow=open;endFill=0;" edge="1" parent="1" source="mVJcqzHK1oMDs0tAUVm2-193" target="mVJcqzHK1oMDs0tAUVm2-198">
          <mxGeometry relative="1" as="geometry" />
        </mxCell>
        <mxCell id="mVJcqzHK1oMDs0tAUVm2-200" value="&lt;font style=&quot;font-size: 30px;&quot;&gt;no&lt;/font&gt;" style="edgeLabel;html=1;align=center;verticalAlign=middle;resizable=0;points=[];" vertex="1" connectable="0" parent="mVJcqzHK1oMDs0tAUVm2-199">
          <mxGeometry x="-0.2322" y="1" relative="1" as="geometry">
            <mxPoint as="offset" />
          </mxGeometry>
        </mxCell>
        <mxCell id="mVJcqzHK1oMDs0tAUVm2-193" value="&lt;font style=&quot;font-size: 25px;&quot;&gt;Updated?&lt;/font&gt;" style="rhombus;whiteSpace=wrap;html=1;" vertex="1" parent="1">
          <mxGeometry x="4009" y="2490" width="160" height="160" as="geometry" />
        </mxCell>
        <mxCell id="mVJcqzHK1oMDs0tAUVm2-195" value="&lt;font style=&quot;font-size: 23px;&quot;&gt;OK&lt;br&gt;&lt;/font&gt;&lt;div style=&quot;font-size: 23px;&quot;&gt;&lt;font style=&quot;font-size: 23px;&quot;&gt;Status code: 200&lt;/font&gt;&lt;/div&gt;" style="shape=parallelogram;perimeter=parallelogramPerimeter;whiteSpace=wrap;html=1;fixedSize=1;fillColor=#cdeb8b;strokeColor=#36393d;" vertex="1" parent="1">
          <mxGeometry x="4220" y="2830" width="220" height="94" as="geometry" />
        </mxCell>
        <mxCell id="mVJcqzHK1oMDs0tAUVm2-198" value="&lt;font style=&quot;font-size: 20px;&quot;&gt;INTERNAL SERVER&amp;nbsp;&lt;/font&gt;&lt;div style=&quot;font-size: 20px;&quot;&gt;&lt;span style=&quot;background-color: initial;&quot;&gt;&lt;font style=&quot;font-size: 20px;&quot;&gt;ERROR&lt;/font&gt;&lt;/span&gt;&lt;div style=&quot;&quot;&gt;&lt;div style=&quot;&quot;&gt;&lt;font style=&quot;font-size: 20px;&quot;&gt;Status code: 500&lt;/font&gt;&lt;/div&gt;&lt;/div&gt;&lt;/div&gt;" style="shape=parallelogram;perimeter=parallelogramPerimeter;whiteSpace=wrap;html=1;fixedSize=1;fillColor=#f8cecc;strokeColor=#b85450;" vertex="1" parent="1">
          <mxGeometry x="3954" y="3000" width="270" height="94" as="geometry" />
        </mxCell>
        <mxCell id="mVJcqzHK1oMDs0tAUVm2-204" value="" style="strokeWidth=1;html=1;shape=mxgraph.flowchart.annotation_2;align=left;labelPosition=right;pointerEvents=1;rotation=90;" vertex="1" parent="1">
          <mxGeometry x="2655" y="2880" width="135" height="270" as="geometry" />
        </mxCell>
        <mxCell id="mVJcqzHK1oMDs0tAUVm2-205" style="edgeStyle=orthogonalEdgeStyle;rounded=0;orthogonalLoop=1;jettySize=auto;html=1;entryX=0;entryY=0.5;entryDx=0;entryDy=0;entryPerimeter=0;endArrow=none;endFill=0;" edge="1" parent="1" source="mVJcqzHK1oMDs0tAUVm2-50" target="mVJcqzHK1oMDs0tAUVm2-204">
          <mxGeometry relative="1" as="geometry" />
        </mxCell>
        <mxCell id="mVJcqzHK1oMDs0tAUVm2-207" value="&lt;font style=&quot;font-size: 30px;&quot;&gt;yes&lt;/font&gt;" style="edgeLabel;html=1;align=center;verticalAlign=middle;resizable=0;points=[];" vertex="1" connectable="0" parent="mVJcqzHK1oMDs0tAUVm2-205">
          <mxGeometry x="-0.3954" y="3" relative="1" as="geometry">
            <mxPoint x="-1" as="offset" />
          </mxGeometry>
        </mxCell>
        <mxCell id="mVJcqzHK1oMDs0tAUVm2-206" value="" style="endArrow=open;html=1;rounded=0;exitX=1;exitY=1;exitDx=0;exitDy=0;exitPerimeter=0;entryX=0.583;entryY=-0.005;entryDx=0;entryDy=0;entryPerimeter=0;endSize=20;endFill=0;" edge="1" parent="1" source="mVJcqzHK1oMDs0tAUVm2-204" target="mVJcqzHK1oMDs0tAUVm2-53">
          <mxGeometry width="50" height="50" relative="1" as="geometry">
            <mxPoint x="2450" y="3170" as="sourcePoint" />
            <mxPoint x="2500" y="3120" as="targetPoint" />
          </mxGeometry>
        </mxCell>
        <mxCell id="mVJcqzHK1oMDs0tAUVm2-208" value="" style="endArrow=open;html=1;rounded=0;exitX=1;exitY=0;exitDx=0;exitDy=0;exitPerimeter=0;endFill=0;endSize=20;" edge="1" parent="1" source="mVJcqzHK1oMDs0tAUVm2-204">
          <mxGeometry width="50" height="50" relative="1" as="geometry">
            <mxPoint x="2500" y="2950" as="sourcePoint" />
            <mxPoint x="2858" y="3150" as="targetPoint" />
          </mxGeometry>
        </mxCell>
        <mxCell id="mVJcqzHK1oMDs0tAUVm2-212" style="edgeStyle=orthogonalEdgeStyle;rounded=0;orthogonalLoop=1;jettySize=auto;html=1;entryX=0.5;entryY=0;entryDx=0;entryDy=0;endSize=20;endArrow=open;endFill=0;" edge="1" parent="1" source="mVJcqzHK1oMDs0tAUVm2-209" target="mVJcqzHK1oMDs0tAUVm2-211">
          <mxGeometry relative="1" as="geometry" />
        </mxCell>
        <mxCell id="mVJcqzHK1oMDs0tAUVm2-209" value="&lt;font style=&quot;font-size: 25px;&quot;&gt;Delete document from database&lt;/font&gt;" style="rounded=0;whiteSpace=wrap;html=1;" vertex="1" parent="1">
          <mxGeometry x="4140" y="1080" width="330" height="100" as="geometry" />
        </mxCell>
        <mxCell id="mVJcqzHK1oMDs0tAUVm2-214" style="edgeStyle=orthogonalEdgeStyle;rounded=0;orthogonalLoop=1;jettySize=auto;html=1;entryX=0.5;entryY=1;entryDx=0;entryDy=0;endSize=20;endArrow=open;endFill=0;" edge="1" parent="1" source="mVJcqzHK1oMDs0tAUVm2-211" target="mVJcqzHK1oMDs0tAUVm2-213">
          <mxGeometry relative="1" as="geometry">
            <Array as="points">
              <mxPoint x="4550" y="1616" />
            </Array>
          </mxGeometry>
        </mxCell>
        <mxCell id="mVJcqzHK1oMDs0tAUVm2-215" value="&lt;font style=&quot;font-size: 30px;&quot;&gt;yes&lt;/font&gt;" style="edgeLabel;html=1;align=center;verticalAlign=middle;resizable=0;points=[];" vertex="1" connectable="0" parent="mVJcqzHK1oMDs0tAUVm2-214">
          <mxGeometry x="-0.7011" y="2" relative="1" as="geometry">
            <mxPoint x="23" y="-73" as="offset" />
          </mxGeometry>
        </mxCell>
        <mxCell id="mVJcqzHK1oMDs0tAUVm2-217" style="edgeStyle=orthogonalEdgeStyle;rounded=0;orthogonalLoop=1;jettySize=auto;html=1;endSize=20;endArrow=open;endFill=0;" edge="1" parent="1" source="mVJcqzHK1oMDs0tAUVm2-211" target="mVJcqzHK1oMDs0tAUVm2-216">
          <mxGeometry relative="1" as="geometry" />
        </mxCell>
        <mxCell id="mVJcqzHK1oMDs0tAUVm2-211" value="&lt;font style=&quot;font-size: 25px;&quot;&gt;Deleted?&lt;/font&gt;" style="rhombus;whiteSpace=wrap;html=1;" vertex="1" parent="1">
          <mxGeometry x="4300" y="1525" width="181" height="181" as="geometry" />
        </mxCell>
        <mxCell id="mVJcqzHK1oMDs0tAUVm2-213" value="&lt;font style=&quot;font-size: 23px;&quot;&gt;OK&lt;br&gt;&lt;/font&gt;&lt;div style=&quot;font-size: 23px;&quot;&gt;&lt;font style=&quot;font-size: 23px;&quot;&gt;Status code: 200&lt;/font&gt;&lt;/div&gt;" style="shape=parallelogram;perimeter=parallelogramPerimeter;whiteSpace=wrap;html=1;fixedSize=1;fillColor=#cdeb8b;strokeColor=#36393d;" vertex="1" parent="1">
          <mxGeometry x="4440" y="1280" width="220" height="94" as="geometry" />
        </mxCell>
        <mxCell id="mVJcqzHK1oMDs0tAUVm2-219" style="edgeStyle=orthogonalEdgeStyle;rounded=0;orthogonalLoop=1;jettySize=auto;html=1;entryX=0.5;entryY=0;entryDx=0;entryDy=0;endSize=20;endArrow=open;endFill=0;" edge="1" parent="1" source="mVJcqzHK1oMDs0tAUVm2-216" target="mVJcqzHK1oMDs0tAUVm2-218">
          <mxGeometry relative="1" as="geometry">
            <Array as="points">
              <mxPoint x="4515" y="2021" />
            </Array>
          </mxGeometry>
        </mxCell>
        <mxCell id="mVJcqzHK1oMDs0tAUVm2-220" value="&lt;font style=&quot;font-size: 30px;&quot;&gt;no&lt;/font&gt;" style="edgeLabel;html=1;align=center;verticalAlign=middle;resizable=0;points=[];" vertex="1" connectable="0" parent="mVJcqzHK1oMDs0tAUVm2-219">
          <mxGeometry x="0.1095" y="-4" relative="1" as="geometry">
            <mxPoint x="4" y="1" as="offset" />
          </mxGeometry>
        </mxCell>
        <mxCell id="mVJcqzHK1oMDs0tAUVm2-222" style="edgeStyle=orthogonalEdgeStyle;rounded=0;orthogonalLoop=1;jettySize=auto;html=1;entryX=0;entryY=0.5;entryDx=0;entryDy=0;endArrow=open;endFill=0;endSize=20;" edge="1" parent="1" source="mVJcqzHK1oMDs0tAUVm2-216" target="mVJcqzHK1oMDs0tAUVm2-221">
          <mxGeometry relative="1" as="geometry">
            <Array as="points">
              <mxPoint x="4220" y="2021" />
              <mxPoint x="4220" y="2443" />
            </Array>
          </mxGeometry>
        </mxCell>
        <mxCell id="mVJcqzHK1oMDs0tAUVm2-223" value="&lt;font style=&quot;font-size: 30px;&quot;&gt;yes&lt;/font&gt;" style="edgeLabel;html=1;align=center;verticalAlign=middle;resizable=0;points=[];" vertex="1" connectable="0" parent="mVJcqzHK1oMDs0tAUVm2-222">
          <mxGeometry x="-0.2764" y="1" relative="1" as="geometry">
            <mxPoint y="1" as="offset" />
          </mxGeometry>
        </mxCell>
        <mxCell id="mVJcqzHK1oMDs0tAUVm2-216" value="&lt;font style=&quot;font-size: 25px;&quot;&gt;Server&lt;/font&gt;&lt;div&gt;&lt;font style=&quot;font-size: 25px;&quot;&gt;error?&lt;/font&gt;&lt;/div&gt;" style="rhombus;whiteSpace=wrap;html=1;" vertex="1" parent="1">
          <mxGeometry x="4300" y="1930" width="181" height="181" as="geometry" />
        </mxCell>
        <mxCell id="mVJcqzHK1oMDs0tAUVm2-218" value="&lt;span style=&quot;font-size: 20px;&quot;&gt;BAD REQUEST&lt;/span&gt;&lt;br&gt;&lt;div&gt;&lt;span style=&quot;font-size: 20px;&quot;&gt;Status code: 400&lt;/span&gt;&lt;/div&gt;" style="shape=parallelogram;perimeter=parallelogramPerimeter;whiteSpace=wrap;html=1;fixedSize=1;fillColor=#ffe6cc;strokeColor=#d79b00;" vertex="1" parent="1">
          <mxGeometry x="4380" y="2210" width="270" height="94" as="geometry" />
        </mxCell>
        <mxCell id="mVJcqzHK1oMDs0tAUVm2-221" value="&lt;font style=&quot;font-size: 20px;&quot;&gt;INTERNAL SERVER&amp;nbsp;&lt;/font&gt;&lt;div style=&quot;font-size: 20px;&quot;&gt;&lt;span style=&quot;background-color: initial;&quot;&gt;&lt;font style=&quot;font-size: 20px;&quot;&gt;ERROR&lt;/font&gt;&lt;/span&gt;&lt;div style=&quot;&quot;&gt;&lt;div style=&quot;&quot;&gt;&lt;font style=&quot;font-size: 20px;&quot;&gt;Status code: 500&lt;/font&gt;&lt;/div&gt;&lt;/div&gt;&lt;/div&gt;" style="shape=parallelogram;perimeter=parallelogramPerimeter;whiteSpace=wrap;html=1;fixedSize=1;fillColor=#f8cecc;strokeColor=#b85450;" vertex="1" parent="1">
          <mxGeometry x="4340" y="2396" width="270" height="94" as="geometry" />
        </mxCell>
      </root>
    </mxGraphModel>
  </diagram>
</mxfile>
